<svg width="22" height="22" viewBox="0 0 22 22" fill="none" xmlns="http://www.w3.org/2000/svg">
<path d="M7.46211 13.4237L8.19317 12.7414L8.19317 12.7414L7.46211 13.4237ZM1.53789 7.07631L2.26894 6.39399H2.26894L1.53789 7.07631ZM12.6325 19.4558L12.9487 20.4045H12.9487L12.6325 19.4558ZM10.6325 20.1225L10.3162 19.1738L10.6325 20.1225ZM14.5379 13.4237L15.2689 14.106L14.5379 13.4237ZM7.93034 14.0275L7 14.3942V14.3942L7.93034 14.0275ZM3 2H14V0H3V2ZM2 5.71167V3H0V5.71167H2ZM9 18.2251V14.7883H7V18.2251H9ZM8.19317 12.7414L2.26894 6.39399L0.806833 7.75863L6.73106 14.106L8.19317 12.7414ZM13 14.7883V17.5585H15V14.7883H13ZM12.3162 18.5072L10.3162 19.1738L10.9487 21.0712L12.9487 20.4045L12.3162 18.5072ZM13 17.5585C13 17.9294 12.9985 18.1236 12.9829 18.2605C12.9701 18.3718 12.9579 18.3376 13 18.2792L14.6225 19.4487C14.8533 19.1284 14.9355 18.7893 14.97 18.4873C15.0015 18.2109 15 17.8833 15 17.5585H13ZM12.9487 20.4045C13.2568 20.3018 13.5681 20.1996 13.8204 20.0823C14.096 19.9541 14.3917 19.7689 14.6225 19.4487L13 18.2792C13.0421 18.2209 13.0784 18.2216 12.9768 18.2689C12.8518 18.327 12.6681 18.3899 12.3162 18.5072L12.9487 20.4045ZM13.8068 12.7414C13.5939 12.9695 13.2948 13.2663 13.1393 13.6608L15 14.3942C14.9854 14.4313 14.9719 14.4395 15.009 14.3934C15.056 14.335 15.1265 14.2586 15.2689 14.106L13.8068 12.7414ZM15 14.7883C15 14.5796 15.0006 14.4757 15.0061 14.4008C15.0104 14.3418 15.0146 14.357 15 14.3942L13.1393 13.6608C12.9838 14.0552 13 14.4762 13 14.7883H15ZM9 14.7883C9 14.4762 9.01616 14.0552 8.86068 13.6608L7 14.3942C6.98537 14.357 6.98964 14.3418 6.99394 14.4008C6.99939 14.4757 7 14.5796 7 14.7883H9ZM6.73105 14.106C6.87346 14.2586 6.94395 14.335 6.99101 14.3934C7.02814 14.4395 7.01463 14.4313 7 14.3942L8.86068 13.6608C8.70519 13.2663 8.40611 12.9695 8.19317 12.7414L6.73105 14.106ZM7 18.2251C7 18.8259 6.99743 19.3885 7.06249 19.8322C7.13097 20.2991 7.30276 20.8546 7.83058 21.2351L9 19.6126C9.11253 19.6937 9.07667 19.783 9.04133 19.542C9.00257 19.2777 9 18.8906 9 18.2251H7ZM10.3162 19.1738C9.68493 19.3843 9.31689 19.5042 9.05391 19.551C8.81409 19.5937 8.88747 19.5315 9 19.6126L7.83058 21.2351C8.3584 21.6155 8.93974 21.6028 9.40436 21.5201C9.84584 21.4415 10.3787 21.2612 10.9487 21.0712L10.3162 19.1738ZM0 5.71167C0 6.02378 -0.016163 6.44477 0.139325 6.83925L2 6.10584C2.01463 6.14296 2.01036 6.15818 2.00606 6.09916C2.00061 6.02434 2 5.92039 2 5.71167H0ZM2.26894 6.39399C2.12653 6.24141 2.05605 6.165 2.00899 6.10658C1.97186 6.0605 1.98537 6.06872 2 6.10584L0.139325 6.83925C0.294813 7.23372 0.593874 7.53046 0.806834 7.75863L2.26894 6.39399ZM3 0C2.55687 0 2.12392 -0.00212375 1.76948 0.0455288C1.38628 0.0970491 0.949002 0.222571 0.585786 0.585786L2 2C1.92968 2.07032 1.87455 2.0494 2.03598 2.02769C2.22617 2.00212 2.50033 2 3 2V0ZM2 3C2 2.50033 2.00212 2.22617 2.02769 2.03598C2.0494 1.87455 2.07032 1.92968 2 2L0.585786 0.585786C0.222571 0.949002 0.0970491 1.38628 0.0455289 1.76948C-0.00212371 2.12392 0 2.55687 0 3H2ZM18.2689 7.96054L13.8068 12.7414L15.2689 14.106L19.7311 9.32518L18.2689 7.96054ZM22 2H16V4H22V2ZM18 0V6H20V0H18Z" fill="black"/>
</svg>
