<svg width="22" height="22" viewBox="0 0 22 22" fill="none" xmlns="http://www.w3.org/2000/svg">
<path d="M10 7C10 8.10457 9.10457 9 8 9C6.89543 9 6 8.10457 6 7C6 5.89543 6.89543 5 8 5C9.10457 5 10 5.89543 10 7ZM10 7H16M12 15C12 16.1046 12.8954 17 14 17C15.1046 17 16 16.1046 16 15C16 13.8954 15.1046 13 14 13C12.8954 13 12 13.8954 12 15ZM12 15H6M9 21H13C16.7712 21 18.6569 21 19.8284 19.8284C21 18.6569 21 16.7712 21 13V9C21 5.22876 21 3.34315 19.8284 2.17157C18.6569 1 16.7712 1 13 1H9C5.22876 1 3.34315 1 2.17157 2.17157C1 3.34315 1 5.22876 1 9V13C1 16.7712 1 18.6569 2.17157 19.8284C3.34315 21 5.22876 21 9 21Z" stroke="black" stroke-width="2" stroke-linecap="square"/>
</svg>
