<svg width="14" height="22" viewBox="0 0 14 22" fill="none" xmlns="http://www.w3.org/2000/svg">
<path fill-rule="evenodd" clip-rule="evenodd" d="M4.90382 11L13.3775 2.95005L10.6225 0.0500488L2.14882 8.10005C2.12928 8.11861 2.10947 8.13741 2.08941 8.15644C1.78505 8.44523 1.42597 8.78593 1.15893 9.11965C0.838078 9.52061 0.451911 10.1467 0.451911 11C0.451911 11.8534 0.838079 12.4795 1.15893 12.8804C1.42597 13.2142 1.78505 13.5549 2.08942 13.8437C2.10947 13.8627 2.12929 13.8815 2.14882 13.9L10.6225 21.95L13.3775 19.05L4.90382 11ZM4.2764 11.6262C4.27641 11.6262 4.27715 11.6253 4.27852 11.6234C4.27707 11.6252 4.27639 11.6262 4.2764 11.6262ZM4.27852 10.3767C4.27717 10.3749 4.27643 10.3739 4.2764 10.3739C4.27637 10.3739 4.27705 10.3748 4.27852 10.3767Z" fill="black"/>
</svg>
