<svg width="14" height="22" viewBox="0 0 14 22" fill="none" xmlns="http://www.w3.org/2000/svg">
<path fill-rule="evenodd" clip-rule="evenodd" d="M9.09618 11L0.622498 2.95005L3.3775 0.0500488L11.8512 8.10005C11.8707 8.11861 11.8905 8.13741 11.9106 8.15644C12.215 8.44523 12.574 8.78593 12.8411 9.11965C13.1619 9.52061 13.5481 10.1467 13.5481 11C13.5481 11.8534 13.1619 12.4795 12.8411 12.8804C12.574 13.2142 12.215 13.5549 11.9106 13.8437C11.8905 13.8627 11.8707 13.8815 11.8512 13.9L3.3775 21.95L0.622498 19.05L9.09618 11ZM9.7236 11.6262C9.72359 11.6262 9.72285 11.6253 9.72148 11.6234C9.72293 11.6252 9.72361 11.6262 9.7236 11.6262ZM9.72148 10.3767C9.72283 10.3749 9.72357 10.3739 9.7236 10.3739C9.72363 10.3739 9.72295 10.3748 9.72148 10.3767Z" fill="black"/>
</svg>
