<svg width="22" height="14" viewBox="0 0 22 14" fill="none" xmlns="http://www.w3.org/2000/svg">
<path fill-rule="evenodd" clip-rule="evenodd" d="M11 4.90375L2.95 13.3774L0.0500029 10.6224L8.1 2.14876C8.11857 2.12922 8.13737 2.1094 8.1564 2.08934C8.44519 1.78498 8.78589 1.4259 9.1196 1.15887C9.52056 0.838015 10.1466 0.451848 11 0.451848C11.8534 0.451848 12.4794 0.838016 12.8804 1.15887C13.2141 1.4259 13.5548 1.78497 13.8436 2.08934C13.8626 2.1094 13.8814 2.12922 13.9 2.14876L21.95 10.6224L19.05 13.3774L11 4.90375ZM11.6261 4.27634C11.6261 4.27638 11.6252 4.27712 11.6233 4.27846C11.6252 4.27697 11.6262 4.2763 11.6261 4.27634ZM10.3767 4.27846C10.3748 4.27711 10.3739 4.27637 10.3739 4.27634C10.3738 4.27631 10.3748 4.27699 10.3767 4.27846Z" fill="black"/>
</svg>
