<svg width="17" height="22" viewBox="0 0 17 22" fill="none" xmlns="http://www.w3.org/2000/svg">
<path d="M15.4142 1.58579L14.7071 2.29289L14.7071 2.29289L15.4142 1.58579ZM16 20H15.5V22H16V20ZM15.5 20H3V22H15.5V20ZM2 19V18H0V19H2ZM3 17H15.5V15H3V17ZM14 18.5C14 17.6716 14.6716 17 15.5 17V15C13.567 15 12 16.567 12 18.5H14ZM15.5 20C14.6716 20 14 19.3284 14 18.5H12C12 20.433 13.567 22 15.5 22V20ZM2 18C2 17.4477 2.44772 17 3 17V15C1.34315 15 0 16.3431 0 18H2ZM3 20C2.44772 20 2 19.5523 2 19H0C0 20.6569 1.34315 22 3 22V20ZM2 18V5H0V18H2ZM5 2H12V0H5V2ZM15 5V15.5H17V5H15ZM12 2C12.9711 2 13.5988 2.00212 14.0613 2.06431C14.495 2.12262 14.631 2.21677 14.7071 2.29289L16.1213 0.87868C15.6117 0.369017 14.9833 0.170272 14.3278 0.0821405C13.701 -0.00212371 12.9145 0 12 0V2ZM17 5C17 4.08546 17.0021 3.29896 16.9179 2.67221C16.8297 2.01669 16.631 1.38834 16.1213 0.878679L14.7071 2.29289C14.7832 2.36902 14.8774 2.50496 14.9357 2.9387C14.9979 3.40121 15 4.02892 15 5H17ZM2 5C2 4.02892 2.00212 3.40121 2.06431 2.9387C2.12262 2.50496 2.21677 2.36902 2.29289 2.29289L0.87868 0.87868C0.369017 1.38834 0.170272 2.01669 0.0821405 2.67221C-0.00212371 3.29896 0 4.08546 0 5H2ZM5 0C4.08546 0 3.29896 -0.00212371 2.67221 0.0821405C2.01669 0.170272 1.38834 0.369017 0.87868 0.87868L2.29289 2.29289C2.36902 2.21677 2.50496 2.12262 2.9387 2.06431C3.40121 2.00212 4.02892 2 5 2V0ZM15.5 17C16.3284 17 17 16.3284 17 15.5H15C15 15.2239 15.2239 15 15.5 15V17Z" fill="black"/>
</svg>
