<svg width="23" height="22" viewBox="0 0 23 22" fill="none" xmlns="http://www.w3.org/2000/svg">
<path fill-rule="evenodd" clip-rule="evenodd" d="M5.18369 11L12.4905 2.83356L9.50951 0.166382L2.20272 8.33279C2.18695 8.35043 2.1709 8.36834 2.15461 8.38652C1.91451 8.65452 1.62338 8.97948 1.40672 9.29456C1.14311 9.6779 0.841844 10.2488 0.841844 11C0.841844 11.7511 1.14311 12.322 1.40672 12.7054C1.62339 13.0205 1.91451 13.3454 2.15461 13.6134C2.1709 13.6316 2.18695 13.6495 2.20273 13.6672L9.50951 21.8336L12.4905 19.1664L5.18369 11Z" fill="black"/>
<path fill-rule="evenodd" clip-rule="evenodd" d="M15.1837 11L22.4905 2.83356L19.5095 0.166382L12.2027 8.33279C12.1869 8.35043 12.1709 8.36834 12.1546 8.38652C11.9145 8.65452 11.6234 8.97948 11.4067 9.29456C11.1431 9.6779 10.8418 10.2488 10.8418 11C10.8418 11.7511 11.1431 12.322 11.4067 12.7054C11.6234 13.0205 11.9145 13.3454 12.1546 13.6134C12.1709 13.6316 12.1869 13.6495 12.2027 13.6672L19.5095 21.8336L22.4905 19.1664L15.1837 11Z" fill="black"/>
</svg>
