<svg width="22" height="22" viewBox="0 0 22 22" fill="none" xmlns="http://www.w3.org/2000/svg">
<path fill-rule="evenodd" clip-rule="evenodd" d="M17.3163 11L10.0095 2.83356L12.9905 0.166382L20.2973 8.33279C20.3131 8.35043 20.3291 8.36834 20.3454 8.38652C20.5855 8.65452 20.8766 8.97948 21.0933 9.29456C21.3569 9.6779 21.6582 10.2488 21.6582 11C21.6582 11.7511 21.3569 12.322 21.0933 12.7054C20.8766 13.0205 20.5855 13.3454 20.3454 13.6134C20.3291 13.6316 20.3131 13.6495 20.2973 13.6672L12.9905 21.8336L10.0095 19.1664L17.3163 11Z" fill="black"/>
<path fill-rule="evenodd" clip-rule="evenodd" d="M7.31631 11L0.00952148 2.83356L2.99049 0.166382L10.2973 8.33279C10.3131 8.35043 10.3291 8.36834 10.3454 8.38652C10.5855 8.65452 10.8766 8.97948 11.0933 9.29456C11.3569 9.6779 11.6582 10.2488 11.6582 11C11.6582 11.7511 11.3569 12.322 11.0933 12.7054C10.8766 13.0205 10.5855 13.3454 10.3454 13.6134C10.3291 13.6316 10.3131 13.6495 10.2973 13.6672L2.99049 21.8336L0.00952148 19.1664L7.31631 11Z" fill="black"/>
</svg>
