<svg width="23" height="23" viewBox="0 0 23 23" fill="none" xmlns="http://www.w3.org/2000/svg">
<path d="M2.67157 20.3807L3.37868 19.6736L3.37868 19.6736L2.67157 20.3807ZM20.3284 20.3807L19.6213 19.6736L19.6213 19.6736L20.3284 20.3807ZM19.4142 2.46646L20.1213 1.75935V1.75935L19.4142 2.46646ZM20.5858 3.63803L19.8787 4.34514L20.5858 3.63803ZM11.5 15.5522V16.5522C11.7652 16.5522 12.0196 16.4469 12.2071 16.2594L11.5 15.5522ZM7.5 15.5522H6.5C6.5 16.1045 6.94771 16.5522 7.5 16.5522L7.5 15.5522ZM7.5 11.5522L6.79289 10.8451C6.60536 11.0327 6.5 11.287 6.5 11.5522H7.5ZM16.5858 2.46646L15.8787 1.75935V1.75935L16.5858 2.46646ZM20.5858 6.46646L21.2929 7.17357V7.17357L20.5858 6.46646ZM13.5 20.5522H9.5V22.5522H13.5V20.5522ZM2.5 13.5522V9.55225H0.5V13.5522H2.5ZM9.5 2.55225H11.5V0.552246H9.5V2.55225ZM20.5 11.5522V13.5522H22.5V11.5522H20.5ZM9.5 20.5522C7.58611 20.5522 6.25129 20.5501 5.24416 20.4147C4.26579 20.2832 3.7477 20.0426 3.37868 19.6736L1.96447 21.0878C2.76702 21.8903 3.77752 22.2355 4.97766 22.3969C6.14904 22.5544 7.64265 22.5522 9.5 22.5522V20.5522ZM0.5 13.5522C0.5 15.4096 0.497876 16.9032 0.655364 18.0746C0.816719 19.2747 1.16191 20.2852 1.96447 21.0878L3.37868 19.6736C3.00966 19.3045 2.76907 18.7865 2.63753 17.8081C2.50212 16.801 2.5 15.4661 2.5 13.5522H0.5ZM13.5 22.5522C15.3573 22.5522 16.851 22.5544 18.0223 22.3969C19.2225 22.2355 20.233 21.8903 21.0355 21.0878L19.6213 19.6736C19.2523 20.0426 18.7342 20.2832 17.7558 20.4147C16.7487 20.5501 15.4139 20.5522 13.5 20.5522V22.5522ZM20.5 13.5522C20.5 15.4661 20.4979 16.801 20.3625 17.8081C20.2309 18.7865 19.9903 19.3045 19.6213 19.6736L21.0355 21.0878C21.8381 20.2852 22.1833 19.2747 22.3446 18.0746C22.5021 16.9032 22.5 15.4096 22.5 13.5522H20.5ZM2.5 9.55225C2.5 7.63836 2.50212 6.30354 2.63753 5.29641C2.76907 4.31804 3.00966 3.79994 3.37868 3.43093L1.96447 2.01671C1.16191 2.81927 0.816719 3.82977 0.655364 5.02991C0.497876 6.20129 0.5 7.6949 0.5 9.55225H2.5ZM9.5 0.552246C7.64265 0.552246 6.14904 0.550122 4.97767 0.70761C3.77752 0.868965 2.76702 1.21416 1.96447 2.01671L3.37868 3.43093C3.7477 3.06191 4.26579 2.82131 5.24416 2.68978C6.25129 2.55437 7.58611 2.55225 9.5 2.55225V0.552246ZM18.7071 3.17357L19.8787 4.34514L21.2929 2.93093L20.1213 1.75935L18.7071 3.17357ZM11.5 14.5522L7.5 14.5522L7.5 16.5522L11.5 16.5522V14.5522ZM8.5 15.5522V11.5522H6.5V15.5522H8.5ZM8.20711 12.2594L14.2071 6.25935L12.7929 4.84514L6.79289 10.8451L8.20711 12.2594ZM14.2071 6.25935L17.2929 3.17356L15.8787 1.75935L12.7929 4.84514L14.2071 6.25935ZM19.8787 5.75935L16.7929 8.84514L18.2071 10.2594L21.2929 7.17357L19.8787 5.75935ZM16.7929 8.84514L10.7929 14.8451L12.2071 16.2594L18.2071 10.2594L16.7929 8.84514ZM12.7929 6.25935L16.7929 10.2594L18.2071 8.84514L14.2071 4.84514L12.7929 6.25935ZM19.8787 4.34514C20.2692 4.73566 20.2692 5.36883 19.8787 5.75935L21.2929 7.17357C22.4645 6.00199 22.4645 4.1025 21.2929 2.93093L19.8787 4.34514ZM20.1213 1.75935C18.9497 0.587781 17.0503 0.587777 15.8787 1.75935L17.2929 3.17356C17.6834 2.78304 18.3166 2.78304 18.7071 3.17357L20.1213 1.75935Z" fill="black"/>
</svg>
