<svg width="22" height="22" viewBox="0 0 22 22" fill="none" xmlns="http://www.w3.org/2000/svg">
<path d="M1 20.7855L0.0136061 20.6211C-0.0394868 20.9397 0.0645323 21.2643 0.292893 21.4926C0.521254 21.721 0.845842 21.825 1.1644 21.7719L1 20.7855ZM1.78994 16.0459L0.803549 15.8815H0.803549L1.78994 16.0459ZM2.90349 13.882L2.19638 13.1749H2.19638L2.90349 13.882ZM14.5 2.28554L15.2071 2.99264L14.5 2.28554ZM5.73966 19.9956L5.90406 20.982L5.73966 19.9956ZM7.90349 18.882L7.19638 18.1749L7.19638 18.1749L7.90349 18.882ZM6.9506 19.6983L7.4064 20.5884L7.40815 20.5875L6.9506 19.6983ZM6.95771 19.6946L7.41526 20.5838L7.41707 20.5829L6.95771 19.6946ZM19.5 2.28553L20.2071 1.57843V1.57843L19.5 2.28553ZM2.08726 14.8349L1.19808 14.3774L1.19718 14.3791L2.08726 14.8349ZM2.09092 14.8278L1.20267 14.3685L1.20175 14.3702L2.09092 14.8278ZM1.98639 20.9499L2.77634 16.2103L0.803549 15.8815L0.0136061 20.6211L1.98639 20.9499ZM3.61059 14.5892L15.2071 2.99264L13.7929 1.57843L2.19638 13.1749L3.61059 14.5892ZM1.1644 21.7719L5.90406 20.982L5.57526 19.0092L0.835601 19.7991L1.1644 21.7719ZM8.61059 19.5892L20.2071 7.99264L18.7929 6.57843L7.19638 18.1749L8.61059 19.5892ZM5.90406 20.982C6.46639 20.8883 6.9599 20.817 7.4064 20.5884L6.49479 18.8082C6.3884 18.8627 6.25891 18.8953 5.57526 19.0092L5.90406 20.982ZM7.19638 18.1749C6.7063 18.665 6.60453 18.7515 6.49835 18.8064L7.41707 20.5829C7.86265 20.3524 8.20748 19.9923 8.6106 19.5892L7.19638 18.1749ZM7.40815 20.5875L7.41526 20.5838L6.50016 18.8054L6.49305 18.8091L7.40815 20.5875ZM18.7929 2.99264C19.7831 3.98283 19.7831 5.58824 18.7929 6.57843L20.2071 7.99264C21.9783 6.22141 21.9783 3.34966 20.2071 1.57843L18.7929 2.99264ZM15.2071 2.99264C16.1973 2.00245 17.8027 2.00245 18.7929 2.99264L20.2071 1.57843C18.4359 -0.192811 15.5641 -0.192807 13.7929 1.57843L15.2071 2.99264ZM2.77634 16.2103C2.89028 15.5266 2.92286 15.3971 2.97734 15.2907L1.19718 14.3791C0.968527 14.8256 0.897271 15.3191 0.803549 15.8815L2.77634 16.2103ZM2.19638 13.1749C1.79327 13.5781 1.4331 13.9229 1.20267 14.3685L2.97917 15.2872C3.03408 15.181 3.12051 15.0792 3.61059 14.5892L2.19638 13.1749ZM2.97643 15.2925L2.98009 15.2854L1.20175 14.3702L1.19808 14.3774L2.97643 15.2925ZM17.7071 9.07842L12.7071 4.07842L11.2929 5.49263L16.2929 10.4926L17.7071 9.07842ZM22 19.75H10V21.75H22V19.75Z" fill="black"/>
</svg>
