<svg width="19" height="23" viewBox="0 0 19 23" fill="none" xmlns="http://www.w3.org/2000/svg">
<path d="M2.19435 17.8322L1.1978 17.9152L2.19435 17.8322ZM14.8057 17.8322L15.8022 17.9152L14.8057 17.8322ZM15.3195 11.6661L14.3229 11.583L15.3195 11.6661ZM1.68051 11.6661L2.67705 11.583L1.68051 11.6661ZM8.4182 2.6636L7.52377 2.21638V2.21639L8.4182 2.6636ZM10.2342 1.91139L10.5504 0.962711V0.962711L10.2342 1.91139ZM11.8592 2.45308L11.543 3.40176L11.8592 2.45308ZM12.7265 4.54692L11.8321 4.09971L12.7265 4.54692ZM3.6736 10.5H13.3264V8.5H3.6736V10.5ZM14.3229 11.583L13.8091 17.7491L15.8022 17.9152L16.316 11.7491L14.3229 11.583ZM10.8195 20.5H6.18053V22.5H10.8195V20.5ZM3.19089 17.7491L2.67705 11.583L0.683962 11.7491L1.1978 17.9152L3.19089 17.7491ZM6.18053 20.5C5.28007 20.5 4.70142 20.498 4.27224 20.4423C3.8715 20.3903 3.73932 20.306 3.66316 20.2359L2.30894 21.7076C2.80686 22.1658 3.39846 22.3456 4.0147 22.4256C4.60251 22.502 5.33406 22.5 6.18053 22.5V20.5ZM1.1978 17.9152C1.2681 18.7588 1.32688 19.488 1.45176 20.0674C1.58268 20.6749 1.81102 21.2495 2.30894 21.7076L3.66316 20.2359C3.58699 20.1658 3.49201 20.0411 3.40687 19.646C3.31569 19.223 3.26567 18.6465 3.19089 17.7491L1.1978 17.9152ZM13.8091 17.7491C13.7343 18.6465 13.6843 19.223 13.5931 19.646C13.508 20.0411 13.413 20.1658 13.3368 20.2359L14.6911 21.7076C15.189 21.2495 15.4173 20.6749 15.5482 20.0674C15.6731 19.488 15.7319 18.7588 15.8022 17.9152L13.8091 17.7491ZM10.8195 22.5C11.6659 22.5 12.3975 22.502 12.9853 22.4256C13.6015 22.3456 14.1931 22.1658 14.6911 21.7076L13.3368 20.2359C13.2607 20.306 13.1285 20.3903 12.7278 20.4423C12.2986 20.498 11.7199 20.5 10.8195 20.5V22.5ZM13.3264 10.5C13.8644 10.5 14.1637 10.5023 14.3705 10.5309C14.5487 10.5556 14.4864 10.5796 14.4132 10.5L15.885 9.14578C15.5147 8.74332 15.0495 8.60585 14.6449 8.54982C14.2689 8.49774 13.8055 8.5 13.3264 8.5V10.5ZM16.316 11.7491C16.3558 11.2717 16.3966 10.8101 16.3759 10.431C16.3536 10.0232 16.2553 9.54824 15.885 9.14578L14.4132 10.5C14.34 10.4204 14.3691 10.3603 14.3789 10.54C14.3902 10.7484 14.3676 11.0469 14.3229 11.583L16.316 11.7491ZM3.6736 8.5C3.19454 8.5 2.73109 8.49774 2.35508 8.54982C1.9505 8.60585 1.48535 8.74332 1.11503 9.14578L2.5868 10.5C2.51359 10.5796 2.45125 10.5556 2.62947 10.5309C2.83626 10.5023 3.1356 10.5 3.6736 10.5V8.5ZM2.67705 11.583C2.63238 11.0469 2.60977 10.7484 2.62114 10.54C2.63094 10.3603 2.66001 10.4204 2.5868 10.5L1.11503 9.14578C0.74472 9.54824 0.646356 10.0232 0.62411 10.431C0.603436 10.8101 0.644178 11.2717 0.683962 11.7491L2.67705 11.583ZM1.16718 2.44299L18.1672 8.44299L18.8328 6.55701L1.83282 0.55701L1.16718 2.44299ZM8.89443 3.94721L9.31263 3.11081L7.52377 2.21639L7.10557 3.05279L8.89443 3.94721ZM9.91796 2.86008L11.543 3.40176L12.1755 1.5044L10.5504 0.962711L9.91796 2.86008ZM11.8321 4.09971L11.6056 4.55279L13.3944 5.44721L13.621 4.99414L11.8321 4.09971ZM11.543 3.40176C11.8317 3.49798 11.9682 3.82756 11.8321 4.09971L13.621 4.99414C14.3013 3.63338 13.6188 1.9855 12.1755 1.5044L11.543 3.40176ZM9.31263 3.11081C9.42391 2.88826 9.6819 2.78139 9.91796 2.86008L10.5504 0.962711C9.37013 0.569284 8.08016 1.1036 7.52377 2.21638L9.31263 3.11081ZM5.00496 13.0995L5.50496 18.0995L7.49504 17.9005L6.99504 12.9005L5.00496 13.0995ZM10.005 12.9005L9.50496 17.9005L11.495 18.0995L11.995 13.0995L10.005 12.9005Z" fill="black"/>
</svg>
