<svg width="22" height="22" viewBox="0 0 22 22" fill="none" xmlns="http://www.w3.org/2000/svg">
<path d="M21 10H22C22 9.44771 21.5523 9 21 9V10ZM21 21V22C21.5523 22 22 21.5523 22 21H21ZM1 21H0C0 21.5523 0.447715 22 1 22L1 21ZM1 10V9C0.447715 9 0 9.44771 0 10H1ZM6 10V11C6.55228 11 7 10.5523 7 10H6ZM6 3.5L5.55279 2.60557C5.214 2.77496 5 3.12123 5 3.5H6ZM16 10H15C15 10.5523 15.4477 11 16 11V10ZM16 3.5H17C17 3.12123 16.786 2.77496 16.4472 2.60557L16 3.5ZM11 1L11.4472 0.105573C11.1657 -0.0351909 10.8343 -0.0351909 10.5528 0.105573L11 1ZM9 21V22C9.55229 22 10 21.5523 10 21H9ZM13 21H12C12 21.5523 12.4477 22 13 22V21ZM20 10V21H22V10H20ZM2 21V10H0V21H2ZM1 11H6V9H1V11ZM7 10V3.5H5V10H7ZM16 11H21V9H16V11ZM15 3.5V10H17V3.5H15ZM6.44721 4.39443L11.4472 1.89443L10.5528 0.105573L5.55279 2.60557L6.44721 4.39443ZM10.5528 1.89443L15.5528 4.39443L16.4472 2.60557L11.4472 0.105573L10.5528 1.89443ZM8 18.5V21H10V18.5H8ZM9 20H1V22H9V20ZM21 20H13V22H21V20ZM14 21V18.5H12V21H14ZM14 18.5C14 16.8431 12.6569 15.5 11 15.5V17.5C11.5523 17.5 12 17.9477 12 18.5H14ZM10 18.5C10 17.9477 10.4477 17.5 11 17.5V15.5C9.34315 15.5 8 16.8431 8 18.5H10ZM4 14.5H6V12.5H4V14.5ZM8 14.5H10V12.5H8V14.5ZM12 14.5H14V12.5H12V14.5ZM16 14.5H18V12.5H16V14.5ZM4 18.5H6V16.5H4V18.5ZM16 18.5H18V16.5H16V18.5ZM12 7C12 7.55228 11.5523 8 11 8V10C12.6569 10 14 8.65685 14 7H12ZM11 8C10.4477 8 10 7.55228 10 7H8C8 8.65685 9.34315 10 11 10V8ZM10 7C10 6.44772 10.4477 6 11 6V4C9.34315 4 8 5.34315 8 7H10ZM11 6C11.5523 6 12 6.44772 12 7H14C14 5.34315 12.6569 4 11 4V6Z" fill="black"/>
</svg>
