<svg width="22" height="22" viewBox="0 0 22 22" fill="none" xmlns="http://www.w3.org/2000/svg">
<path d="M7 21H3.25C2.00736 21 1 19.9927 1 18.75C1 18.2632 1.1579 17.7895 1.45 17.4L1.5 17.3334C2.83789 15.5495 4.92343 14.082 7 14.082" stroke="black" stroke-width="2" stroke-linejoin="round"/>
<path d="M15 5C15 7.20914 13.2091 9 11 9C8.79086 9 7 7.20914 7 5C7 2.79086 8.79086 1 11 1C13.2091 1 15 2.79086 15 5Z" stroke="black" stroke-width="2" stroke-linejoin="round"/>
<path d="M9 12.6969V18.8031C9 18.9863 9 19.0779 9.02372 19.1522C9.07296 19.3063 9.19372 19.427 9.34783 19.4763C9.42207 19.5 9.51367 19.5 9.69687 19.5C10.3438 19.5 10.6672 19.5 10.9856 19.5291C11.6398 19.589 12.2823 19.7407 12.8943 19.9797C13.1921 20.096 13.4814 20.2407 14.06 20.53L14.3031 20.6516L14.3031 20.6516C14.5472 20.7736 14.6692 20.8346 14.7966 20.8611C14.9308 20.8889 15.0692 20.8889 15.2034 20.8611C15.3308 20.8346 15.4528 20.7736 15.6969 20.6516L15.94 20.53C16.5186 20.2407 16.8079 20.096 17.1057 19.9797C17.7177 19.7407 18.3602 19.589 19.0144 19.5291C19.3328 19.5 19.6562 19.5 20.3031 19.5C20.4863 19.5 20.5779 19.5 20.6522 19.4763C20.8063 19.427 20.927 19.3063 20.9763 19.1522C21 19.0779 21 18.9863 21 18.8031V12.6969C21 12.5137 21 12.4221 20.9763 12.3478C20.927 12.1937 20.8063 12.073 20.6522 12.0237C20.5779 12 20.4863 12 20.3031 12C19.6562 12 19.3328 12 19.0144 12.0291C18.3602 12.089 17.7177 12.2407 17.1057 12.4797C16.8079 12.596 16.5186 12.7407 15.94 13.03L15.6969 13.1516C15.4528 13.2736 15.3308 13.3346 15.2034 13.3611C15.0692 13.3889 14.9308 13.3889 14.7966 13.3611C14.6692 13.3346 14.5472 13.2736 14.3031 13.1516L14.06 13.03C13.4814 12.7407 13.1921 12.596 12.8943 12.4797C12.2823 12.2407 11.6398 12.089 10.9856 12.0291C10.6672 12 10.3438 12 9.69687 12C9.51367 12 9.42207 12 9.34783 12.0237C9.19372 12.073 9.07296 12.1937 9.02372 12.3478C9 12.4221 9 12.5137 9 12.6969Z" stroke="black" stroke-width="2"/>
<path d="M15 13V21" stroke="black" stroke-width="2"/>
</svg>
