<svg width="20" height="23" viewBox="0 0 20 23" fill="none" xmlns="http://www.w3.org/2000/svg">
<path d="M3 4.75V3.75C2.72459 3.75 2.46137 3.86359 2.27243 4.06397C2.08349 4.26435 1.98555 4.53379 2.00173 4.80872L3 4.75ZM17 4.75L17.9983 4.80872C18.0144 4.53379 17.9165 4.26435 17.7276 4.06397C17.5386 3.86359 17.2754 3.75 17 3.75V4.75ZM3.77852 17.9849L4.7768 17.9262L3.77852 17.9849ZM16.2215 17.9849L17.2198 18.0436L16.2215 17.9849ZM3 5.75H17V3.75H3V5.75ZM16.0017 4.69128L15.2232 17.9262L17.2198 18.0436L17.9983 4.80872L16.0017 4.69128ZM12.2284 20.75H7.77162V22.75H12.2284V20.75ZM4.7768 17.9262L3.99827 4.69128L2.00173 4.80872L2.78025 18.0436L4.7768 17.9262ZM7.77162 20.75C6.8509 20.75 6.25824 20.748 5.81951 20.6904C5.40935 20.6366 5.27601 20.5494 5.19978 20.4776L3.82772 21.9327C4.32934 22.4057 4.93159 22.591 5.55924 22.6734C6.15831 22.752 6.90566 22.75 7.77162 22.75V20.75ZM2.78025 18.0436C2.8311 18.9081 2.87297 19.6543 2.98664 20.2477C3.10574 20.8694 3.3261 21.4597 3.82772 21.9327L5.19978 20.4776C5.12355 20.4057 5.02876 20.2777 4.95093 19.8714C4.86768 19.4368 4.83086 18.8453 4.7768 17.9262L2.78025 18.0436ZM15.2232 17.9262C15.1691 18.8453 15.1323 19.4368 15.0491 19.8714C14.9712 20.2777 14.8764 20.4057 14.8002 20.4776L16.1723 21.9327C16.6739 21.4597 16.8943 20.8694 17.0134 20.2477C17.127 19.6543 17.1689 18.9081 17.2198 18.0436L15.2232 17.9262ZM12.2284 22.75C13.0943 22.75 13.8417 22.752 14.4408 22.6734C15.0684 22.591 15.6707 22.4057 16.1723 21.9327L14.8002 20.4776C14.724 20.5494 14.5906 20.6366 14.1805 20.6904C13.7418 20.748 13.1491 20.75 12.2284 20.75V22.75ZM0 5.75H20V3.75H0V5.75ZM8 4.75V3.25H6V4.75H8ZM8.5 2.75H11.5V0.75H8.5V2.75ZM12 3.25V4.75H14V3.25H12ZM11.5 2.75C11.7761 2.75 12 2.97386 12 3.25H14C14 1.86929 12.8807 0.75 11.5 0.75V2.75ZM8 3.25C8 2.97386 8.22386 2.75 8.5 2.75V0.75C7.11929 0.75 6 1.86929 6 3.25H8ZM6.50254 9.82125L7.00254 16.8212L8.99746 16.6788L8.49746 9.67875L6.50254 9.82125ZM11.5025 9.67875L11.0025 16.6788L12.9975 16.8212L13.4975 9.82125L11.5025 9.67875Z" fill="black"/>
</svg>
